<?xml version="1.0" encoding="utf-8"?>
<!-- Generator: Adobe Illustrator 23.0.0, SVG Export Plug-In . SVG Version: 6.00 Build 0)  -->
<svg version="1.1" id="Layer_1" xmlns="http://www.w3.org/2000/svg" xmlns:xlink="http://www.w3.org/1999/xlink" x="0px" y="0px"
	 viewBox="0 0 1685.68 1394.87" style="enable-background:new 0 0 1685.68 1394.87;" xml:space="preserve">
<style type="text/css">
	.st0{fill:#010DEF;}
	.st1{fill:#2A7EF8;}
	.st2{fill:#A6A6A6;}
	.st3{fill:#297EF9;}
	.st4{fill:#0203BA;}
	.st5{fill:#52D7F8;}
	.st6{fill:#050FEA;}
	.st7{fill:#2C7EF5;}
	.st8{fill:#F2F7F7;}
	.st9{fill:#3480EC;}
	.st10{fill:#ECF8F6;}
	.st11{fill:#1D277E;}
	.st12{fill:#F6FBFA;}
	.st13{fill:#FDFDFD;}
</style>
<g>
	<path class="st0" d="M1523.07,659.03c-5.56,9.95-5.21,21.35-7.47,32.06c-8.24,38.9-19.47,76.86-34.37,113.69
		c-2.48,6.12-1.72,8.74,4.01,12.09c14.73,8.61,28.88,18.83,43.77,26.47c22.53,11.57,43.75,25.26,66.22,36.75
		c5.49,2.81,5.95,5.52,3.47,10.66c-15.47,32.09-32.4,63.34-51.38,93.52c-9.16,14.56-19.45,28.3-28.84,42.67
		c-0.92,1.25-1.84,2.49-2.76,3.74c0,0-0.34,0.55-0.34,0.55c-2.06,2.52-4.13,5.04-6.19,7.57c-0.95,0.03-1.91,0.07-2.86,0.1
		c-0.54-2.22-2.79-1.6-4.13-2.5c-2.04-1.56-4.08-3.11-6.12-4.67c-5.69-3.96-11.25-8.17-18.1-10.04c-0.54-0.24-1.09-0.26-1.66-0.08
		c-2.36-1.19-3.37-4.75-6.89-3.92c-21.18-13.02-42.37-26.05-63.55-39.07c-0.94-7.63-6.98-8.45-12.84-10.26
		c-8.39-2.59-10.29-1.61-11.33,7.82c0,0,0.2-0.14,0.2-0.14c-6.76,1.96-12.67,4.6-10.79,13.47c-14.43,18.02-30.57,34.37-46.87,50.74
		c-17.88,17.98-36.91,34.41-56.4,50.44c-3.32,2.73-4.2,5.09-1.89,8.74c1.38,2.18,2.37,4.61,3.54,6.92
		c-0.23,2.89-0.94,5.92,0.57,8.58c6.72,11.79,16.13,22.23,17.92,36.47c0.12,0.99,1.1,2.15,2,2.73c5.37,3.4,8.45,7.89,11.37,13.9
		c6.41,13.15,15.08,25.21,21.58,38.45c3.24,6.6,1.77,10.28-5.59,11.33c-6.74,0.96-9.92,4.08-9.36,10.88c0,0,0.06-0.07,0.06-0.07
		c-1.44-0.02-3.05-0.46-4.3,0.02c-13.62,5.19-23.42,16.79-36.99,22.17c-1.57,0.62-0.95,3.14-0.68,4.86
		c-27.73,17.36-57.16,31.41-86.85,44.98c-6.03,2.75-6.33-2.29-7.89-4.96c-19.76-33.94-39.5-67.9-58.82-102.09
		c-3.68-6.51-6.65-8.07-14.11-5.06c-45.08,18.17-91.64,31.4-139.59,39.55c-2.57,0.44-5.23,0.39-7.83,0.56
		c-1.45-0.07-2.9-0.19-4.36-0.21c-14.4-0.18-14.29-0.18-14.26,13.97c0.07,37.33-0.06,74.65,0.11,111.98
		c0.04,7.91-3.45,10.8-11.08,10.91c-5.3,0.08-11.2-1.66-15.8,2.84c-4.3,0.22-8.6,0.43-12.89,0.65c-31.97,0-63.95,0-95.93,0
		c-12.01,0.5-23.84-1.69-35.77-2.29c-5.75-0.29-7.45-2.66-7.4-8.63c0.32-39.09-0.03-78.19,0.31-117.29c0.07-7.53-2.3-9.42-9.7-10.51
		c-42.37-6.2-83.86-16.27-124.31-30.44c-3.29-1.15-5.26-4.78-9.15-4.64c-0.85-1.49-1.58-4.16-2.58-4.27
		c-7.11-0.76-12.67-5.18-19.06-7.44c-8.63-3.05-13.87,1.16-14.32,10.39c0,0,0.1-0.07,0.1-0.07c-4.61-1-5.98,2.01-7.22,5.57
		c-1.68,4.81-3.21,10.02-7.16,13.34c-5.93,4.97-8.23,10.83-6.87,18.31c-8.22,15.05-16.45,30.1-24.67,45.15
		c-0.35,0.57-0.71,1.14-1.06,1.71l-0.55,0.25c0,0-0.05,0.6-0.04,0.6c-2.9,4.65-6.38,9.05-8.56,14.02
		c-3.06,6.97-7.01,10.06-14.36,6.1l-0.02-0.01c-9.31-4.46-18.62-8.92-27.94-13.39c-38.61-20.06-76.21-41.79-111.85-66.87
		c-6.11-4.3-7.54-7.21-3.37-14.21c19.87-33.32,39.06-67.05,58.52-100.62c5.77-9.95,5.94-11.37-3.77-18.36
		c-32.65-23.49-60.13-52.39-86.76-82.17c-8.55-9.56-16.75-19.49-24.43-29.76c-3.35-4.48-5.56-4.16-9.85-1.65
		c-35.77,20.9-71.82,41.32-107.45,62.46c-6.77,4.02-9.5,2.56-13.67-3.2c-31.59-43.59-59.32-89.45-81.8-138.38
		c-1.47-3.2-9.63-6.75-1.7-11.73c18.14-8.46,35-19.16,52.04-29.55l0.45,0.07c0,0,0.15-0.43,0.15-0.43c0.65-0.42,1.31-0.84,1.96-1.26
		c20.29-11.48,40.55-23.03,60.9-34.4c3.72-2.08,4.86-4.24,3.13-8.39c-18.16-43.46-29.94-88.79-39.26-134.83
		c-0.57-2.82-0.39-5.79-0.56-8.67c3.6-6.34-0.56-6.67-5.18-6.66c-33.84,0.08-67.68,0.15-101.52,0.23c-1.18-0.02-2.37-0.05-3.54-0.07
		c-7.75-0.1-15.5-0.19-23.26-0.29c-2.92,0.04-5.86-0.14-8.75,0.16c-4.55,0.48-6.05-1.64-6.55-5.91
		c-3.79-31.88-7.17-63.78-6.91-95.95c0.89-0.64,2.6-1.34,2.55-1.9c-0.76-8.66,4.59-8.66,10.99-8.64
		c52.23,0.11,104.47-0.06,156.7-0.04c61.28,0.03,122.55,0.17,183.83,0.26c0.03,0.72,0.06,1.44,0.09,2.15
		c0.09,18.48,0.19,36.97,0.25,55.45c0.01,2.66-0.13,5.19,2.89,1.39c7.76,64.07,26.72,124.52,58.34,180.89
		c1.71,3.04,3.65,5.96,5.49,8.93c18.49,32.9,41.63,62.33,67.69,89.46c17.54,18.26,36.05,35.49,57.11,49.76
		c0.52,0.41,1.04,0.82,1.55,1.22c0.44,0.34,0.88,0.69,1.33,1.03c0.49,0.29,0.98,0.58,1.48,0.87c16.77,14.21,35.74,25.08,54.92,35.49
		c24.6,13.35,49.9,25.2,77.01,32.72c29.35,11.1,59.99,16.63,90.9,21c0.86,0.12,1.71,0.34,2.56,0.51c0.32,4.36,3.76,2.81,5.97,2.86
		c9.86,0.21,19.73,0.16,29.6,0.2c10.52,0.05,21.05,0.09,31.56,0.14c-0.01,0,0.8-0.02,0.8-0.02l0.81,0.01
		c1.76-0.02,3.52-0.05,5.27-0.07c10.45-0.06,20.91-0.04,31.36-0.26c2.24-0.05,5.63,1.41,6.03-2.86
		c57.25-7.21,111.79-23.56,163-50.09c41.61-21.56,79.35-48.84,112.93-81.63c65.84-64.29,109.38-141.4,131.78-230.54
		c4.44-1.49,6.04-5.08,6.26-9.26c0.41-7.73,2.36-15.39,2.96-22.81c1.19-14.58,5.53-28.77,4.63-43.63
		c-0.82-13.6-0.18-27.29-0.19-40.95c0.01-0.6,0.03-1.21,0.04-1.81c2.04-0.11,4.08-0.3,6.11-0.3c111.75,0.02,223.5,0.08,335.24-0.02
		c4.83,0,9.02,0.81,12.85,3.65c0.17,21.17-0.67,42.29-3.39,63.3c-0.91,0.53-2.61,1.04-2.62,1.6c-0.29,9.88-2.04,19.73-0.65,29.64
		c-0.24,2.52-0.48,5.05-0.71,7.56c-4.3,0.56-5.41,5.64-9.41,6.63c-1.97,0.05-3.94,0.1-5.9,0.14c-26.28-0.09-52.57-0.18-78.86-0.26
		c-11.98-0.02-23.96-0.26-35.92,0.05c-4.72,0.12-9.79-1.91-14.2,1.48C1523.89,658.32,1523.43,658.62,1523.07,659.03z"/>
	<path class="st1" d="M1342.96,245.9c29.52,7.58,58.7,16.09,87.25,26.95c8.49,3.23,12.63,9.68,18.28,15.24
		c12.73,17.42,26.38,34.06,41.77,49.22c0,0-0.02-0.02-0.02-0.02c4.34,8.3,12.65,13.26,17.65,21c-0.22,6.37,1.62,10.81,9.21,9.93
		l-0.08,0.17c0,1.13,0.58,1.74,1.68,1.89l0.14-0.06c0.97,7.33,8.43,14.76,15.69,15.62l-0.04,0.18c0.14,1.13,0.76,1.7,1.91,1.67
		l0.13-0.1c-0.75,6.57,1.96,9.62,8.71,8.55l-0.03,0.25c-0.11,1.18,0.44,1.78,1.6,1.86l-0.11,0.09c0.34,1.29,1.27,1.76,2.51,1.8
		c2.74-0.09,3.87,2.25,5.58,3.71c15.61,13.28,30.13,27.87,47.62,38.84c0,0-0.01-0.02-0.01-0.02c17.8,15.16,36.95,28.3,57.98,38.62
		c0,0-0.08-0.05-0.08-0.05c3.95,3.67,8.63,5.95,13.83,7.24c0,0,0.06-0.07,0.06-0.08c2.7,2.99,1.85,6.76,2.24,10.26
		c0,0-0.13,0.45-0.13,0.45c-3.32,1.53-6.85,1.01-10.3,0.97c-22.89-0.3-45.77-0.7-68.66-1.06c-51.88-4.48-101.19-19.34-149.96-36.69
		c-49.72-17.69-100.08-33.4-150.99-47.34c-1.39-0.38-2.88-0.37-4.32-0.54c-0.5-0.29-0.97-0.72-1.52-0.86
		c-88.67-23.09-178.13-40.34-270.44-33.78c-21.35,1.52-42.59,4.85-63.45,10.03c-3.1-0.56-6.73,1.32-9.61-1.78
		c8.17-5.44,19.44-5.23,23.98-15.46l0.55-0.43l0.7,0.02c10.71,2.44,17.64-6.69,26.85-9.01c2.21-0.56,7-0.19,6.85-5.03
		c0.46-0.35,0.87-0.85,1.38-1.03c71.55-25.77,145.04-31.1,219.97-20.7c48.51,6.74,95.11,20.45,140.42,38.84
		c2.61,1.06,5.4,3.38,9.08,1.38c-18.76-30.98-37.33-61.64-55.89-92.29c-1.69-3.61-2.97-7.47-6.12-10.21l-0.01-0.02
		c-0.48-2.63-1.31-5.07-3.62-6.71l-0.13-0.21c-2.35-7.04-6.29-13.25-10.23-19.46c-0.18-0.56-0.36-1.12-0.53-1.68
		c-0.5-2.77-3.49-6.32,2.26-7.1c0.42,0.42,0.89,0.49,1.42,0.21C1316.99,241.4,1329.98,243.65,1342.96,245.9z"/>
	<path class="st2" d="M815.52,387.86c-0.09-0.57-0.34-1.06-0.73-1.48c-4.53-6.75-8.84-13.66-13.64-20.22
		c-10.48-14.33-20.88-28.74-33.61-41.24c-1.67-1.8-3.33-3.6-5-5.4c-3.08-5.16-7.34-9.18-12.16-12.67c-1.37-3.1-2.98-5.86-7.14-4.87
		l-0.09-0.09c0.52-7.48-6.71-8.88-10.54-12.53c-17-16.18-35.28-30.82-56.24-41.77c-0.77-1.42-2.14-1.63-3.55-1.78
		c-31.7-20.58-74.14-31.74-111.99-29.28c-0.08-4.77,3.34-7.94,5.54-11.31c38.86-59.67,77.97-119.18,116.86-178.83
		c3.18-4.88,6.5-7.3,12.68-6.8c37.12,3.03,70.4,14.99,98.73,39.95c13.1,11.54,23.92,24.65,32.82,39.53
		c1.98,3.32,3.14,6.74,3.14,10.74c-0.06,97.93-0.03,195.86-0.04,293.78c0,0.79-0.29,1.59-0.62,3.33
		c-5.8-4.18-7.48-10.74-11.67-15.25C817.34,390.41,816.43,389.14,815.52,387.86z"/>
	<path class="st2" d="M1013.08,247.67c-16.14,8.33-30.91,18.58-43.86,31.37c-10.95,8.31-22.06,16.45-30.23,27.77
		c-15.01,13.63-28.05,29.04-40.13,45.23c-9.34,12.52-19.82,24.3-26.66,38.57c-3.89,5.3-7.78,10.59-13.33,18.16
		c0-5.63,0-8.67,0-11.71c0-93.76,0.11-187.53-0.17-281.29c-0.03-8.67,2.09-16.01,6.82-22.92c27.87-40.72,66.01-64.39,114.99-72.03
		c15.66-2.44,23.87,1.71,32.23,14.95c34.25,54.26,69.77,107.72,104.82,161.47c2.86,4.39,5.51,8.94,8.62,13.16
		c3.96,5.37,1.67,6.17-3.61,5.9c-26.13-1.37-51.04,4.35-75.07,14c-10.53,4.23-20.55,9.71-30.8,14.61
		C1015.05,245.25,1013.85,246.17,1013.08,247.67z"/>
	<path class="st3" d="M395.57,414.08c-72.83,19.25-143.26,46.03-215.14,68.24c-52.57,16.24-106.75,18.71-161.28,17.42
		c-2.49-0.06-5.48,0.51-6.04-3.37c-0.62-4.35,1.03-6.7,5.1-8.81c28.61-14.84,55.13-32.89,80.14-53.19c0.89-0.73,1.66-1.61,2.49-2.42
		c15.37-10.07,27.55-23.96,41.98-35.16c2.94-0.68,7.22,2.27,8.7-1.55c1.76-4.56,5.6-6.75,8.33-10.13c3.94-4.88,11.7-7.2,10.92-15.41
		c0.65-2.75,3.04-4.12,4.73-6.05c7.77-8.89,17.33-16.17,23.68-26.34c0,0-0.03,0.03-0.03,0.03c5.74-5.9,11.47-11.8,17.21-17.69
		c6.85-2.83,14.18-7.45,16.77-13.04c2.62-5.64,5.4-10.51,9.62-14.73c2.21-2.21,1.91-4.71,1.94-7.31c1.88-5.14,6.04-8.02,10.54-10.55
		c3.08,0.27,5.62-1.36,8.32-2.42c37.88-14.82,76.87-25.5,117.21-31.01c2.98-0.41,7.16-2.87,8.96,0.05c1.88,3.05-1.5,6.46-3.06,9.46
		C367.6,286.9,345.59,322,324.12,357.41c-4.09,6.74-9.24,12.96-12.47,21.68c4.03-1.56,6.71-2.6,9.39-3.63
		c16.28-6.3,32.26-13.48,49.39-17.35c7.45,0.35,15.25-2.79,21.66-2.38c14.31,0.92,25.96-6.53,38.88-9.1
		c16.31-3.24,32.26-6.1,48.82-5.86c0.61,4.19,3.88,3.45,6.63,3.47c7.15,0.06,14.3,0.02,21.45,0.03c0.31,2.44,1.75,3.49,4.15,3.47
		c12.8-0.06,25.6-0.09,38.41-0.18c1.34-0.01,2.01-0.87,1.49-3.3c-14.52,0-29.29,0-44.06,0c-0.6-4.21-3.87-3.45-6.62-3.47
		c-7.15-0.06-14.3-0.03-21.44-0.04c0.61-4.37,4.02-3.48,6.78-3.46c6.68,0.04,13.54,1.21,19.97,0.73
		c21.58-1.59,43.14-0.12,64.68-0.76c4.22-0.12,8.54-0.35,12.19,2.95c-6.12,1.75-12.6-1.04-18.17,2.95
		c9.48-0.24,19.05,3.88,28.37-1.71c2.73-1.64,6.17-0.76,9.33,0.35c11.5,4.03,24.8,1.32,35.28,9.35c0.56,0.43,1.72,0.19,2.58,0.09
		c9.92-1.17,18.79,2.54,27.83,5.75c8.3,2.95,15.67,10.07,23.07,11.35c9.23,1.59,16.82,5.27,25.28,8.45
		c-2.95,2.92-6.54,3.44-9.35,2.33c-16.62-6.58-33.78-3.23-50.74-3.28c-23.31-0.07-46.62,0.3-69.91-0.12
		c-19.38-0.35-38.26,6.22-57.74,3.63c-0.29-0.04-0.58,0.01-0.87,0.01c-4.96-0.13-6.84,2.46-6.32,7.17l-0.09-0.06
		c-12.7-0.74-25.1,1.47-37.65,2.83c-8.95,0.97-17.61,3.15-26.11,5.08c-15.74,3.57-31.39,7.24-47.34,9.86
		C405.15,405.19,395.98,403.67,395.57,414.08z M592.63,368.97c-3.75-5.66-7.67-3.52-11.53-2.01c3.46,2.74,7.31,1.41,11.47,2.38
		c3.85,4.01,20.36,4.64,27,0C609.93,369.34,601.01,369.34,592.63,368.97z M564.02,354.8c10.76-0.01,21.52,0.08,32.28-0.08
		c2.66-0.04,6.11,1.4,7.58-2.34c0.36-0.9,0.16-2.59-0.47-3.21c-2.36-2.32-6.22-2.3-8.15-1.03c-7.53,4.99-15.72,2.46-23.6,3.18
		c-2.92,0.27-6.78-1.37-7.65,3.47c-1.55,0.25-3.51-0.5-4.3,1.53c-0.13,0.33,0.78,1.48,1.31,1.56
		C563.33,358.26,563.73,356.54,564.02,354.8z M621.19,358.86c0.06,0.96,0.12,1.91,0.17,2.87c7.67,0,15.35,0.02,23.02-0.01
		c2.47-0.01,3.79-1.4,3.59-3.83c-0.22-2.67-2.58-3.8-4.32-2.75C636.69,359.34,628.67,357.66,621.19,358.86z M649.5,369.71
		c0,0.58,0,1.16,0,1.75c9.1,0,18.2,0,27.3,0c0-0.58,0-1.16,0-1.75C667.7,369.71,658.6,369.71,649.5,369.71z M562.82,363.06
		c-7.95,0-15.9,0-23.84,0C546.9,365.26,554.85,365.85,562.82,363.06z M496.08,352.76c-5.04-1.23-10.11-2.29-15.09,0.51
		C486,354.86,491.01,355.42,496.08,352.76z M451.61,352.68c-3.43-1.73-5.8-2.07-8.14,0.75C446.33,355.04,448.6,355.51,451.61,352.68
		z M626.14,353.83c0.19-2.19-1.13-2.41-2.16-2.32c-0.96,0.08-2.45,0.59-2.68,1.26c-0.53,1.55,1.04,1.79,2.09,1.79
		C624.35,354.56,625.33,354.06,626.14,353.83z M685.73,369.84c-0.51-0.16-0.82-0.26-1.14-0.36c0.06,0.21,0.12,0.43,0.18,0.64
		C685.01,370.05,685.25,369.98,685.73,369.84z"/>
	<path class="st4" d="M862.07,504.26c7.15,38.39,22.12,73.53,44.24,105.63c13.2,19.17,29.12,35.77,48.21,49.15
		c3.71,2.6,4.53,5.19,3.8,9.46c-7.97,46.57-15.77,93.17-23.58,139.76c-0.34,2.01-0.41,4.07-0.6,6.1c-2.4,1.04-4.7,2.62-7.2,3.03
		c-20.03,3.32-40.07,6.85-60.4,7.39c-21.79,0.58-43.65,1.25-65.34-1.71c-15.45-2.11-31.23-2.72-45.98-8.67
		c-6.12-37.39-12.23-74.78-18.38-112.17c-1.85-11.22-3.82-22.41-5.78-33.61c-0.63-3.57-0.69-6.42,2.97-9.03
		c39.46-28.07,64.32-66.85,81.09-111.47c0.51-1.36,1.24-2.64,1.86-3.95c6.3-5.11,7.39-11.95,6.48-19.46l-0.08,0.15
		c1.93-0.12,3.62-0.85,3.52-3.01c-0.37-7.58,5.6-13.96,3.92-21.84c-0.49-2.31,0.37-4.83,3.68-4.63c3.39,0.21,3.08,2.86,3.16,5.16
		c0.06,1.75,0.02,3.5,0.02,5.25c-0.01,44.88,0.01,89.76-0.05,134.64c-0.01,11.85,2.34,24.23-6.83,34.28
		c-1.26,1.58-2.65,3.08-3.77,4.76c-5.75,8.62-4.49,19.94,2.94,27.06c7.79,7.47,19.29,7.98,27.84,1.24
		c12.88-10.16,10.21-27.08-5.84-36.99c-0.07-56.22-0.06-112.44-0.34-168.66c-0.03-6.16,2.46-7.71,7.8-6.96
		C861.27,497.9,859.64,501.67,862.07,504.26z"/>
	<path class="st5" d="M479.92,775.61c-11.57-21.77-23.81-43.25-32.86-66.23c-10.4-26.42-20.54-53.02-22.51-81.93
		c5.15,12.47,9.97,25.09,15.51,37.39c11.89,26.39,26.14,51.44,43.19,74.9c12.99,17.88,26.73,35.17,42.29,50.82
		c30.01,30.19,62.86,56.7,100.36,77.42c25.02,13.82,50.73,25.68,77.79,34.79c54.27,18.26,110.12,25.21,167.1,22.04
		c53.03-2.95,104.09-15.15,152.8-36.53c15.87-6.97,31.64-14.27,45.82-24.45c3.25-0.19,6.05-1.31,8.85-3.1
		c19.02-12.16,37.49-25.13,54.65-39.77c7.32-6.25,16.06-11.37,20.62-20.5c18.29-17.51,34.33-36.9,49.68-57.07
		c18.95-24.9,33.88-51.91,46.73-80.21c5.27-11.61,9.8-23.56,15.43-37.2c-0.42,15.93-4.83,29.17-8.74,42.34
		c-17.34,58.4-46.03,110.63-84.76,157.77c-35.24,42.9-77.62,76.88-125.7,103.71c-31.7,17.68-65.62,30.53-101.11,38.99
		c-35.92,8.56-72.34,12.58-109.16,11.89c-33.56-0.63-66.6-5.47-99.21-13.95c-39.38-10.24-76.15-26.21-111-46.93
		c-0.46-0.27-1.14-0.17-1.72-0.24c-17.62-12.85-35.25-25.69-52.87-38.54c0,0,0.02,0.02,0.02,0.02c-0.54-0.99-0.84-2.28-1.66-2.93
		c-23.71-19.01-43.5-41.64-62.31-65.39C497.61,800.63,490.6,786.78,479.92,775.61z"/>
	<path class="st6" d="M1115.76,91.69c24.5,2.35,46.85,11.08,68.07,23.06c3.94,2.23,5.43,6.75,7.72,10.41
		c24.93,39.7,49.8,79.44,74.68,119.18c-0.2,0.94,0.14,1.48,1.14,1.52c0,0,0.23,0.28,0.23,0.28c15.07,24.72,30.15,49.45,45.92,75.32
		c-6.38-1.93-11.57-3.52-16.76-5.08c-28.51-8.59-57.81-12.84-87.34-15.78c-1.07-2.49-3.34-1.87-5.23-1.87
		c-15.01-0.02-30.02,0.01-45.03,0.11c-1.84,0.01-4.18-0.82-5.15,1.85c-5.9,2.13-12.13,1.21-18.19,1.93
		c-71.7,8.59-138.17,32.49-200.79,67.99c-18.27,10.35-35.04,22.96-53.04,33.66l-0.62-0.53c2.62-6.59,7.51-11.69,11.63-17.25
		c23.53-31.75,51.26-59.45,81.9-84.3c0.53-0.01,0.88-0.27,1.03-0.78c5.44-3.8,10.88-7.6,16.32-11.4l-0.05,0.05
		c27.45-17.28,56.59-30.88,87.64-40.31c1.14-0.23,2.28-0.46,3.42-0.69c1.41,0.27,2.73,0.25,3.62-1.12c1.16-0.21,2.32-0.42,3.48-0.63
		c1.49,0.31,2.83,0.05,3.91-1.1c12.45-1.46,24.91-2.83,37.34-4.41c14.22-1.8,28.39,0.16,44.35,1.13
		c-8.69-13.58-16.51-25.75-24.29-37.94c-22.91-35.92-45.81-71.84-68.71-107.76c0.05-3.75,1.29-5.73,5.71-5.57
		C1097.7,91.99,1106.73,91.71,1115.76,91.69z"/>
	<path class="st6" d="M557.27,94.99c0,0,0.46,0.06,0.46,0.06c5.64-1.02,12.36,3.46,16.87-3.32l0.28-0.35c0,0,0.42,0.17,0.41,0.18
		c11.07,0.04,22.15,0.07,33.23,0.11c2.18,3.57-1.47,5.11-2.8,7.19c-29.06,45.51-58.26,90.93-87.38,136.4
		c-1.35,2.11-3.64,3.88-3.08,7.8c26.84-4.25,53.38-0.82,79.91,3.15c1.09,1.1,2.4,1.4,3.89,1.1c1.15,0.23,2.3,0.46,3.46,0.69
		c0.93,1.36,2.25,1.33,3.65,1.06c1.14,0.24,2.28,0.48,3.42,0.72c10.51,3.52,21.02,7.03,31.53,10.55c0.83,1.35,2.16,1.48,3.56,1.45
		c29.23,13.28,56.24,30.19,81.65,49.73l0.37,0.34c1.23,2.34,3.22,3.76,5.63,4.68c0.56,0.52,1.13,1.05,1.69,1.57
		c3.96,3.83,7.91,7.66,11.87,11.5c23.26,22.59,44.88,46.57,62.17,74.17l-0.61,0.51c-3.4-0.39-5.61-2.94-8.14-4.75
		c-17.79-12.75-36.39-24.16-55.52-34.79c-23.97-13.32-49.24-23.76-74.35-34.61c0.03-1.2,2.87-2.96,1.08-3.01
		c-7.19-0.2-13.23-6.29-20.79-3.82c-23.82-6.65-47.74-12.85-72.01-17.66c-0.35-4.1-3.57-3.11-5.96-3.18
		c-6.4-0.19-12.8-0.17-19.2-0.23c-5.76-0.13-11.57,0.34-17.17-1.53c-0.49-1.81-1.99-1.87-3.43-1.87
		c-17.16-0.04-34.32-0.07-51.47-0.08c-1.44,0-2.94,0.12-3.24,2.04c-26.38,2.9-52.63,6.5-78.23,13.81c-7.3,2.08-14.59,4.2-23.26,6.71
		c2.08-3.47,3.25-5.48,4.47-7.45c16.82-27.29,33.64-54.58,50.46-81.86c0,0,0.02-0.03,0.02-0.03c14.23-21.14,27.7-42.76,40.46-64.81
		c1.36-0.74,1.93-1.94,2.04-3.42l-0.16,0.21c0.45-0.7,0.91-1.4,1.36-2.1c0.58-0.9,1.16-1.81,1.74-2.71c1.2-0.41,1.79-1.22,1.63-2.51
		c0.7-1.17,1.4-2.34,2.1-3.5c0.39-0.57,0.78-1.15,1.17-1.72c0.75-1.3,1.51-2.59,2.26-3.89c0.36-0.44,0.72-0.88,1.08-1.31
		c0.8-1.39,1.6-2.78,2.41-4.17c0.6-0.09,0.82-0.42,0.66-0.99c0.42-0.69,0.83-1.38,1.25-2.07c1.5-1.72,2.99-3.44,4.49-5.17
		c3.8,0.01,5.76-2.78,7.21-5.5c3.96-7.42,9.63-12.68,17.58-15.44c3.3-1.15,6.85-2.04,5.83-6.84c0,0,0.48-0.1,0.48-0.1
		c7.96,1.77,14.46-4.29,22.32-4.54C548.32,101.29,556.07,100.89,557.27,94.99z"/>
	<path class="st7" d="M755.21,814.4c14.74,5.95,30.52,6.56,45.98,8.67c21.68,2.97,43.55,2.29,65.34,1.71
		c20.33-0.54,40.37-4.07,60.4-7.39c2.5-0.41,4.81-1.99,7.2-3.03c19.1-1.6,36.7-8.76,54.42-15.17
		c30.58-11.06,58.78-26.81,86.08-44.42c14.48-9.34,26.57-21.5,40.42-31.51c2.59-0.09,5.06,0.07,7.21-2.18
		c6.02-6.32,12.22-12.48,18.52-18.52c1.98-1.89,2.24-3.92,1.92-6.32c0.41-0.45,0.81-0.91,1.22-1.36c4.19,1.18,7.46-1.41,8.46-4.38
		c1.25-3.72,3.95-6.03,5.99-8.86c3.76-5.22,5.71-2.87,6.22,2.26c-6.09,10.74-12.18,21.47-18.27,32.21c0,0,0.04-0.04,0.04-0.04
		c-6.93,9.4-13.85,18.8-20.78,28.21c-0.44,0.15-0.65,0.45-0.63,0.92c-17.56,19.38-35.94,37.93-55.51,55.3c0,0-0.1,0.09-0.1,0.09
		c-9.93,6.26-19.2,13.43-28.3,20.81c-25.97,15.77-52.65,30.01-81.58,39.75c-49.66,16.73-100.39,22.94-152.62,17.12
		c-75.78-8.45-141.85-38.49-198.97-88.59c-13.35-11.71-26.41-23.84-36.88-38.38c0.7-9.6-7.98-13.88-12.16-20.62
		c-6.57-10.62-15.31-19.89-22.03-30.43c-1.69-2.66-6.13-6.06-3.21-11.26c2.91,0.91,4.61,3.25,6.58,5.23
		c8.2,8.22,16.4,16.45,24.63,24.63c2.44,2.43,4.73,5.33,8.89,4.09c0.43-0.15,0.69,0,0.78,0.44c-0.07,2.92-0.25,6.12,2.79,7.63
		c6.23,3.09,11.1,7.79,16.14,12.4c1.16,1.06,3.82,0.5,5.79,0.68c0,0,0.06,0.01,0.06,0.01c1.28,4.82,4,7.69,9.4,6.93
		c28.66,18.64,58.09,35.85,90.37,47.55C717.36,805.22,735.55,812.47,755.21,814.4z"/>
	<path class="st8" d="M862.07,504.26c-2.43-2.59-0.79-6.36-2.64-9.12c-0.06-5.26-4.06-4.18-6.96-3.92
		c-4.16,0.37-2.57,4.02-2.57,6.25c-0.1,55.82-0.09,111.64,0,167.47c0,2.02-1.35,4.88,2.07,5.83c16.04,9.91,18.72,26.84,5.84,36.99
		c-8.55,6.74-20.05,6.23-27.84-1.24c-7.44-7.12-8.7-18.45-2.94-27.06c1.12-1.68,2.51-3.18,3.77-4.76c3.19-2.73,8.96-2.1,8.93-8.96
		c-0.23-56.39-0.11-112.77-0.15-169.16c0-2.39,0.92-5.47-3.48-5.54c-3.66-0.06-6.11,0.67-6.88,4.77
		c-1.82,9.71-3.88,19.37-5.84,29.05c0,0,0.08-0.15,0.08-0.15c-0.94,1.9-1.89,3.8-2.83,5.7c-8.22-5.61-4.49-13.95-2.85-20.21
		c1.89-7.19,2.7-13.33-0.4-20.1c-0.88-1.92-1.09-4.93-0.18-6.72c1.61-3.2,3.14,0.62,4.81,0.8c3.62,0.38,7.8,2.01,8.86-3.77
		c0.39-2.12,1.99-2.75,3.91-2.56c2.18,0.21,2.73,1.81,2.88,3.69c0.19,2.37,0.74,5.82,3.72,3.58c3.33-2.5,9.27,5.03,10.36-3.14
		c0.22-1.63-0.07-4.07,2.51-3.43c1.44,0.36,3.11,1.94,3.67,3.37c3.33,8.39,3.22,8.42,10.52,1.95c0.79-0.7,1.7-1.28,4.79-3.59
		c-1.82,10.23-3.23,18.19-4.58,25.78C865.25,508.15,866.03,499.38,862.07,504.26z"/>
	<path class="st9" d="M370.44,358.11c26.77-10.27,54.74-15.93,82.85-20.62c34.62-5.78,69.62-7.64,104.66-5.49
		c74.09,4.54,143.37,24.51,205.72,65.88c2.63,1.74,4.9,4.03,7.34,6.06l0.04-0.04c-11.52-2.06-21.29-9.49-33.05-10.83
		c0,0-0.11,0.13-0.11,0.13c-8.38-4-17.3-5.92-26.47-6.84c-1.64-0.53-3.25-1.25-4.93-1.57c-41.62-8.01-83.6-7.63-125.59-4.55
		c-16.22,1.19-32.57,2.25-48.48,6.23c-1.16,0.08-2.32,0.17-3.48,0.25c-2.29-0.06-4.59-0.11-6.88-0.17c-0.52-4.7,1.36-7.29,6.32-7.17
		c0.29,0.01,0.59-0.04,0.87-0.01c19.48,2.59,38.36-3.99,57.74-3.63c23.3,0.42,46.61,0.05,69.91,0.12
		c16.96,0.05,34.12-3.3,50.74,3.28c2.8,1.11,6.39,0.59,9.35-2.33c-8.46-3.19-16.05-6.86-25.28-8.45c-7.4-1.27-14.77-8.4-23.07-11.35
		c-9.04-3.21-17.91-6.92-27.83-5.75c-0.86,0.1-2.02,0.34-2.58-0.09c-10.48-8.03-23.78-5.32-35.28-9.35
		c-3.17-1.11-6.6-1.99-9.33-0.35c-9.32,5.58-18.89,1.47-28.37,1.71c5.57-3.99,12.05-1.2,18.17-2.95c-3.65-3.29-7.97-3.07-12.19-2.95
		c-21.55,0.63-43.1-0.84-64.68,0.76c-6.42,0.47-13.29-0.7-19.97-0.73c-2.76-0.01-6.17-0.9-6.78,3.46l-0.01,0.01
		c-16.56-0.24-32.51,2.61-48.82,5.86c-12.92,2.57-24.57,10.02-38.88,9.1C385.69,355.32,377.89,358.46,370.44,358.11z"/>
	<path class="st8" d="M559.31,932.53c-21.05-14.27-39.57-31.51-57.11-49.76c-26.07-27.13-49.2-56.56-67.69-89.46
		c3.18-2.88,10.61,3.03,11.26-5.48c0.07-0.87,1.95-0.13,2.8,0.76c1.39,1.46,3.94,3.02,2.98,4.96c-4.44,8.95,3.78,15.68,3.76,23.79
		c-0.01,3.23,1.26,4.01,4.41,2.37c7.24-3.77,9.2,2.03,9.3,6.77c0.18,8.54,2.62,11.71,10.82,7.21c1.15-0.63,2.23-1.03,2.9,0.24
		c0.7,1.33,0.77,3.13-0.44,4.07c-8.75,6.81,0.19,9.1,3.56,10.43c4.32,1.71,7.84,3.12,9.41,7.73c0.25,0.73,1.26,1.74,1.88,1.71
		c9.56-0.38,9.48,10.8,16.4,13.65c1.72,0.71,1.28,3.08,1.34,4.8c0.08,2.08,0.23,5.28,2.09,5.29c8.36,0.03,11.3,9.82,19.31,10.16
		c2.07,0.09,3.08,1.56,2.93,3.59c-0.35,4.98-5.52,1.97-8.15,5.35c11.98,2.7,24.64,4.91,22.65,22.09c8.49-8.85,8.36-10.62,2.13-19.47
		c-2.21-3.14-8.55-7.35-4.15-10.57c5.11-3.73,8.82,3.42,11.14,6.95C569.62,910.06,567.88,921.78,559.31,932.53z"/>
	<path class="st8" d="M486.75,142c-0.8,1.39-1.6,2.78-2.41,4.17c-0.43,0.38-0.79,0.82-1.08,1.31c-0.75,1.3-1.51,2.59-2.26,3.89
		c-0.39,0.57-0.78,1.15-1.17,1.72c-0.7,1.17-1.4,2.34-2.1,3.5c-0.54,0.84-1.09,1.67-1.63,2.51c-0.58,0.9-1.16,1.81-1.74,2.71
		c-0.45,0.7-0.91,1.4-1.36,2.1c0,0,0.16-0.21,0.16-0.21c-1.69,0.54-2.07,1.86-2.03,3.42c-12.76,22.05-26.23,43.67-40.46,64.81
		c0.27-3.55-3.72-3.14-4.99-5.37c-1.95-3.42-1-4.72,2.7-6.31c4.38-1.88,2.76-6.05,0.98-8.59c-2.48-3.53-2.6-6.62-0.96-11.2
		c2.1,2.59,3.66,4.46,5.14,6.39c1.06,1.39,0.91,4.67,3.99,2.86c2.04-1.21,2.17-3.39,1.19-5.41c-1.25-2.56-0.75-5.67-3.14-7.98
		c-1.77-1.71-2.17-4.47,0.6-5.82c2.51-1.22,4.6-0.2,4.99,2.85c0.36,2.78,2.22,4.47,4.57,4.48c3.62,0.01,1.55-3.78,2.77-5.31
		c4.91-6.1,3.05-16.04,11.68-20.08c2.82-1.32,1.96-4.56,2.08-7.12c0,0,0.01-0.01,0.01-0.01c5.77-1.39,3.29-6.09,3.37-9.35
		c0.13-5.16,1.33-8.59,7.32-8.2c4.42,0.29,9.3-0.9,8.85-5.7c-0.41-4.39-5.43-5.24-9.82-4.86c-2.31,0.2-4.59,0.03-6.44,1.95
		c-1.55,1.61-3.61,1.99-5.5,0.6c-1.3-0.95-1.32-2.52-0.74-3.95c1-2.48,3.29-2,5.23-2.04c4.06-0.09,8.14-0.18,12.2,0
		c6.35,0.28,7.87-2.33,5.25-7.94c-1.19-2.56-3.06-5.07-1.12-8.92c8.9,11.99,7.88-4.34,13-4.21c-0.7,4.65,3.28,7.96,3.53,12.33
		c-0.03,1.54-0.75,2.65-2.1,3.38c-0.44,0.69-0.88,1.37-1.32,2.06c0.14,0.67-0.09,1.17-0.69,1.49c-4.18,0.57-4.9,3.43-4.62,6.96
		c-0.42,0.69-0.83,1.38-1.25,2.07C487.13,141.31,486.91,141.64,486.75,142z"/>
	<path class="st8" d="M479.92,775.61c10.68,11.17,17.69,25.02,27.25,37.09c18.81,23.75,38.6,46.38,62.31,65.39
		c0.81,0.65,1.12,1.94,1.66,2.93c-6.18,0.64-11.22-0.83-15.28-6.17c-3.67-4.83-8.03-8.49-15.32-8.09
		c-6.51,0.36-8.88-4.84-6.12-11.29c0.84-1.96,2.29-4.58-0.09-5.22c-10.1-2.68-12.01-12.38-17.23-19.32
		c-2.81,0.75-2.75,5.7-6.74,4.28c-3.02-1.08-2.17-3.68-2.53-5.86c-1.12-6.74-5.44-4.84-9.05-2.89c-3.36,1.82-6.67,3.47-9.16-0.31
		c-2.37-3.6,0.39-6.93,2.84-9.19c5.87-5.4,8.3-8.62-2.67-9.97c-6.6-0.81-10.46-10.12-8.69-16.74
		C482.41,785.34,478.33,780.67,479.92,775.61z"/>
	<path class="st8" d="M1079.84,249.75c-31.06,9.43-60.2,23.03-87.65,40.31c-0.38-1.71-0.66-3.54-3.07-3.32
		c-0.93,0.08-1.79,0.67-1.37,1.66c0.86,2.04,2.92,1.24,4.49,1.61c-5.44,3.8-10.88,7.6-16.32,11.39c-8.77-4.91-4.31-10.9-1.39-16.77
		c6.97,1.31,11.42-1.2,12.15-10.06c3.62,3.73,1.48,9.92,7.1,9.89c3.38-0.02,4.24-2.42,4.65-5.13c-1.98-2.86-4.03,3.09-5.82-0.15
		c-0.74-1.34-0.64-2.98,0.55-4.03c1.78-1.56,3.73-0.89,5.72-0.1c4.62,1.83,18.22-2.66,20.25-6.56c1.97-3.8-4.19-4.75-3.04-8.39
		c0.04-0.12-3-0.89-1.61-2.76c0.49-0.66,2.27-0.86,3.25-0.56c2.5,0.76,4.81,2.56,7.31,2.77c3.41,0.3,6.25,0.57,10.43-1.3
		c11.92-5.34,22.7-15.94,37.72-12.32C1075.94,246.6,1079.33,245.46,1079.84,249.75z"/>
	<path class="st10" d="M1507.9,358.29c-5-7.74-13.31-12.71-17.65-21c7.1-0.23,12.36-0.86,16,9c3.31,8.95,13.21,15.55,20.46,22.94
		c7.03,7.16,14.62,13.57,20.9,21.71c2.98,3.87,7.48,10.98,15.67,10.33c5.15-0.41,3.52,6.42,7.27,8.72
		c11.94,7.31,19.73,19.4,30.79,27.83c1.6,1.22,1.16,3.15,1.11,4.87c-17.49-10.97-32.01-25.57-47.62-38.84
		c-1.71-1.45-2.84-3.8-5.58-3.71c-0.37-1.25-1.06-2.06-2.51-1.8c0,0,0.11-0.09,0.11-0.09c0.13-1.19-0.35-1.85-1.6-1.86
		c0,0,0.03-0.25,0.02-0.24c-1.79-3.98-4.77-6.76-8.71-8.56c0,0-0.13,0.1-0.14,0.1c-0.06-1.21-0.75-1.71-1.91-1.67
		c0,0,0.04-0.18,0.04-0.18c-4.18-6.26-9.17-11.71-15.69-15.63c0,0-0.14,0.06-0.15,0.06c0.02-1.15-0.42-1.88-1.68-1.89
		c0,0,0.08-0.17,0.07-0.16C1515.23,363.81,1511.64,360.98,1507.9,358.29z"/>
	<path class="st10" d="M199.19,337.3c-6.35,10.17-15.91,17.45-23.68,26.34c-1.69,1.94-4.08,3.31-4.73,6.05
		c-10.34,7.97-19.11,17.57-27.95,27.09c-14.42,11.2-26.61,25.09-41.98,35.16c-0.39-5.33-0.91-10.67,7.08-10.4
		c0.95,0.03,2.83-1.18,2.77-1.57c-1.44-9.2,9.57-10.4,11.45-17.95c0.79-3.19,7.22-3.29,10.98-5.56
		c11.31-6.85,17.73-18.54,27.92-26.02c8-5.87,11.78-15.35,20.11-20.6c1.14-0.72,2.38-2.28,2.45-3.52
		C184.23,335.26,192.17,337.13,199.19,337.3z"/>
	<path class="st9" d="M573.71,722.93c-4.16,1.24-6.45-1.66-8.89-4.09c-8.23-8.19-16.43-16.41-24.63-24.63
		c-1.97-1.97-3.67-4.32-6.58-5.23c-2.92,5.2,1.51,8.61,3.21,11.26c6.73,10.54,15.46,19.81,22.03,30.43
		c4.17,6.74,12.86,11.02,12.16,20.62c-15.8-15.69-27.39-34.52-39.05-53.22c-6.76-10.83-13.07-22.01-17.88-33.92
		c0.56-1.98,1.32-3.82,3.1-5.05c14.61,19.98,30.73,38.64,48.77,55.62C568.68,717.3,571.13,720.19,573.71,722.93z"/>
	<path class="st10" d="M522.07,386.54c2.29,0.06,4.59,0.11,6.88,0.17c-2.52,2.98-4.6,6.55-7.66,8.81
		c-4.37,3.23-8.07,5.74-15.25,2.64c-8.02-3.47-18.2-2.44-27.3,0.18c-0.53,0.15-4.16-0.45-1.54,2.01c4.09,3.84,0.13,3.4-1.81,3.48
		c-4.94,0.21-9.89,0.03-14.83,0.11c-3.89,0.06-8.5-1.22-9.35,4.92c-0.1,0.74-1.88,1.98-2.55,1.79c-10.36-2.88-20.16,1.83-30.26,2.04
		c-0.25-0.13-0.49-0.26-0.74-0.39c0.24,0.14,0.48,0.27,0.72,0.41c-6.32,3.48-13.08,1.18-19.64,1.54
		c22.96-7.65,46.69-12.22,70.29-17.27c17.59-3.76,35.29-7.01,52.94-10.49L522.07,386.54z"/>
	<path class="st4" d="M1308,1228.69c-0.56-6.8,2.62-9.92,9.36-10.88c7.36-1.05,8.83-4.73,5.59-11.33
		c-6.49-13.23-15.16-25.29-21.58-38.45c-2.93-6.01-6-10.5-11.37-13.9c-0.9-0.57-1.88-1.73-2-2.73
		c-1.78-14.24-11.2-24.69-17.92-36.47c-1.52-2.66-0.81-5.68-0.57-8.58c17.5,29.93,35.05,59.83,52.47,89.8
		c9.94,17.1,9.87,17.18-6.46,28.36C1313.17,1226.14,1311.14,1228.47,1308,1228.69z"/>
	<path class="st11" d="M367.45,544.49c-61.28-0.09-122.55-0.23-183.83-0.26c-52.23-0.02-104.47,0.15-156.7,0.04
		c-6.39-0.01-11.75-0.01-10.99,8.64c0.05,0.55-1.66,1.26-2.55,1.9c-0.09-0.87-0.14-1.75-0.28-2.6c-1.27-7.49,0.87-10.28,9.41-10.24
		c71.03,0.4,142.07,0.22,213.1,0.22c41.22,0,82.44-0.05,123.65,0.13C361.95,542.32,365.72,540.16,367.45,544.49z"/>
	<path class="st8" d="M571.11,881c17.62,12.85,35.25,25.69,52.87,38.54c-6.72,0-13.45,0-19.86,0c-1.28-4.72,6.57-2.08,3.83-6.45
		c-2.7-4.31-7.46-5.45-12.17-4.69c-4.24,0.68-8.2,2.49-12.69,2.66c-5.67,0.21-9-2.05-9.99-7.38c-0.93-5.02,1.35-6.99,6.46-5.79
		c1.42,0.33,1.77-1.28,1.82-2.43c0.07-1.48-0.11-2.99-2.07-3.15c-0.55-0.04-1.18,0.41-1.68,0.28c-4.31-1.07-10.11,0.86-12.65-3.6
		C561.63,883.12,572.09,886.11,571.11,881z"/>
	<path class="st11" d="M1676.09,547.97c-3.83-2.83-8.02-3.65-12.85-3.65c-111.75,0.1-223.5,0.04-335.24,0.02
		c-2.04,0-4.07,0.19-6.11,0.3c0.94-3.96,4.19-2.27,6.35-2.27c113.77-0.05,227.53,0,341.3,0.03
		C1673.39,542.4,1677.65,541.7,1676.09,547.97z"/>
	<path class="st10" d="M532.43,386.45c15.91-3.98,32.26-5.04,48.48-6.23c41.98-3.08,83.97-3.46,125.59,4.55
		c1.68,0.32,3.29,1.04,4.93,1.57c-1.21,0.07-2.42,0.14-3.64,0.21c-6.99-0.07-13.98-0.14-20.97-0.2c-1.83-6.31-7.03-2.33-10.56-3.46
		c-4.67-0.01-9.34-0.02-14.01-0.03c-0.58,0-1.17,0-1.75,0c-1.75,0-3.51,0-5.26,0c-11.7,0-23.39,0-35.09,0c-2.34,0-4.68,0-7.01,0
		c-2.34,0-4.68,0-7.02,0c-4.68,0-9.36,0-14.04,0c-4.1,0.01-8.21,0.02-12.31,0.04c-2.32,0.01-4.63,0.03-6.95,0.04
		c-3.13,0.64-7.6-2.18-8.82,3.41c-9.89,1.28-20.23-2.72-29.83,2.61C533.31,389.45,532.61,387.62,532.43,386.45z"/>
	<path class="st9" d="M521.98,386.48c-17.65,3.48-35.35,6.73-52.94,10.49c-23.6,5.04-47.33,9.62-70.29,17.27
		c-1.06-0.05-2.12-0.1-3.18-0.16c0.41-10.41,9.58-8.89,15.3-9.83c15.96-2.62,31.61-6.3,47.34-9.86c8.5-1.93,17.16-4.11,26.11-5.08
		C496.88,387.95,509.28,385.74,521.98,386.48z"/>
	<path class="st10" d="M504.38,1298.63c7.34,3.96,11.3,0.87,14.36-6.1c2.18-4.97,5.66-9.37,8.56-14.02
		c0.25,1.68-0.04,3.78,0.86,4.98c4.61,6.16,3.65,11.43-3.67,14.49c-5.04,2.1-9,4.24-10.48,10.21c-0.67,2.72-3.98,7.06-6.3,0.2
		c-1.03-3.04-3.61-3.43-5.51-1.89c-4.85,3.93-7.11,3.1-9.22-2.82c-1.06-2.97-4.25-6.58-7.1-7.24c-6.49-1.51-7.37-6.61-9.44-11.2
		c9.31,4.46,18.63,8.92,27.94,13.39c-1.09,0.24-2.43,0.18-2.62,1.68c-0.04,0.29,0.69,1,0.98,0.96
		C504.21,1301.05,504.18,1299.75,504.38,1298.63z"/>
	<path class="st12" d="M974.53,284.63c-2.91,5.87-7.38,11.86,1.39,16.77c-0.15,0.52-0.5,0.78-1.03,0.79
		c-4.8-0.01-9.6-0.02-14.39-0.03c-0.02-1.12,0.01-2.25-0.09-3.37c-0.18-2.23-1.06-4.22-3.61-2.92c-2.15,1.1-0.43,2.9,0.21,4.32
		c0.66,1.45,2.02,1.82,3.46,2c-4.02,2.16-7.59,4.16-7.26,10.02c0.27,4.75-3.28,4.89-6.37,2.42c-2.86-2.29-5.26-5.17-7.86-7.79
		c8.17-11.33,19.28-19.46,30.23-27.78C968.91,282.89,970.35,285.06,974.53,284.63z M947.14,304.39c0.48,0.21,1.07,0.69,1.42,0.55
		c0.35-0.14,0.45-0.89,0.67-1.37c-0.48-0.21-1.07-0.69-1.41-0.56C947.46,303.16,947.35,303.91,947.14,304.39z"/>
	<path class="st10" d="M1153.53,800.44c-4.56,9.14-13.3,14.25-20.62,20.5c-17.16,14.64-35.63,27.6-54.65,39.77
		c-2.81,1.8-5.6,2.91-8.85,3.1c4.22-9.01,13.38-11.95,21.16-15.89c7.82-3.95,13.63-10.24,20.81-14.89
		c12.01-7.77,22.93-17.33,32.39-28.29C1146.32,801.8,1149.25,799.54,1153.53,800.44z"/>
	<path class="st10" d="M1069.46,800.5c19.57-17.37,37.95-35.92,55.51-55.3c0.14,1.72,3.64,2.97,2.14,3.97
		c-4.98,3.32-4.93,9.93-8.09,12.98c-4.32,4.18-8.25,10.17-12.83,12.32c-5.56,2.62-7.53,7.15-11.42,10.18
		c-2.98,2.32-3.86,10.1-10.7,6.54c-0.09-0.05-1.71,1.81-1.69,2.76C1082.64,805.31,1075.03,800.87,1069.46,800.5z"/>
	<path class="st10" d="M142.33,851.2c-17.04,10.39-33.9,21.09-52.04,29.55c1.44-4.16-5.86-9.49,1.82-12.93
		c1.67-0.75,2.81-2.24,3.67,0.58c0.4,1.33,1.97,2.17,2.54,1.35c4.77-6.78,13.71-5.05,19.43-9.76c0.65-0.53,1.86-1.05,1.86-1.59
		c0.11-12.58,8.1-8.42,14.91-7.24C137.06,851.6,139.73,851.21,142.33,851.2z M124.99,858.35c-0.13-0.23-0.25-0.46-0.38-0.7
		c-0.17,0.2-0.45,0.39-0.46,0.61c-0.02,0.22,0.22,0.46,0.35,0.69C124.65,858.75,124.82,858.55,124.99,858.35z"/>
	<path class="st10" d="M1597.37,499c22.89,0.37,45.77,0.76,68.66,1.06c3.44,0.05,6.98,0.56,10.3-0.97c0.48,4.74-1.36,6.71-6.41,6.66
		c-19.74-0.22-39.48-0.32-59.21,0.05C1604.64,505.91,1602.41,500.03,1597.37,499z"/>
	<path class="st10" d="M1490.27,337.31c-15.4-15.16-29.04-31.8-41.77-49.22c6.83-1.49,8.54,5.18,11.08,8.47
		c3.62,4.69,5.89,9.67,12.87,9.27c0.99-0.06,2.96,1,2.92,1.25c-1.84,9.96,10.39,11.23,11.92,19.44
		C1487.94,330.02,1495.25,331.88,1490.27,337.31z"/>
	<path class="st11" d="M1321.84,546.46c0.01,13.65-0.63,27.34,0.19,40.95c0.89,14.86-3.44,29.05-4.63,43.63
		c-0.6,7.43-2.55,15.09-2.96,22.81c-0.22,4.18-1.83,7.77-6.26,9.26C1317.26,624.75,1320.95,585.77,1321.84,546.46z"/>
	<path class="st11" d="M905.59,1368.13c4.6-4.5,10.5-2.77,15.8-2.84c7.64-0.11,11.12-2.99,11.08-10.91
		c-0.17-37.33-0.04-74.65-0.11-111.98c-0.03-14.14-0.14-14.15,14.26-13.97c1.46,0.02,2.91,0.14,4.36,0.21
		c-0.51,0.29-0.98,0.72-1.51,0.84c-15.13,3.28-15.12,3.28-15.12,19.25c0.01,36.38-0.2,72.77,0.2,109.14
		c0.07,6.58-2.14,8.75-8.09,8.98C919.49,1367.12,912.54,1367.69,905.59,1368.13z"/>
	<path class="st10" d="M1477.98,1021.69c6.85,1.87,12.4,6.08,18.1,10.04c-1.86,1.14-1.97,2.19-0.37,3.91
		c2.1,2.26,4.08,2.67,6.5,0.75c1.34,0.9,3.59,0.28,4.13,2.5c-0.94,2.98-1.33,7.31-5.34,6.71c-3.24-0.48-6.66-1.34-8.74-5.93
		c-2.65-5.82-4.53-15.22-15.5-10.65c-2.41,1.01-3.76-3.08-5.7-4.68c-1.53-1.26-3.08-6.57-5.97-0.93c-0.16,0.32-1.98,0.26-2.03,0.09
		c-0.31-1.06-0.73-2.35-0.38-3.3c1.21-3.33,4.45-1.83,6.78-2.53c3.51-0.83,4.52,2.73,6.89,3.92c0.26,0.73,0.51,1.46,0.77,2.19
		C1477.39,1023.09,1477.68,1022.39,1477.98,1021.69z"/>
	<path class="st10" d="M1660.41,481.28c-21.03-10.32-40.18-23.46-57.98-38.62c8.71-0.3,13.33,7.02,19.8,10.82
		c9.19,5.38,17.96,11.46,26.87,17.32C1653.44,473.65,1657.95,476.37,1660.41,481.28z"/>
	<path class="st11" d="M62.4,656.85c33.84-0.08,67.68-0.15,101.52-0.23c4.62-0.01,8.78,0.32,5.18,6.66
		c-1.36-4.78-5.08-4.49-8.97-4.52c-28.25-0.21-56.5-0.52-84.74-0.9C71.05,657.8,66.73,657.2,62.4,656.85z"/>
	<path class="st11" d="M1574.55,656.59c26.29,0.09,52.58,0.17,78.86,0.26c-8.66,1.82-17.46,1.14-26.18,1.25
		c-34.73,0.47-69.46,0.64-104.17,0.93c0.38-0.41,0.83-0.72,1.36-0.92c8.42,0.05,16.87,0.43,25.28,0.06
		C1557.98,657.82,1566.45,659.92,1574.55,656.59z"/>
	<path class="st8" d="M641.09,260.32c-10.51-3.52-21.02-7.03-31.53-10.55c3.68-4.28,16.27-5.52,20.61-1.85
		c0.99,0.84,1.29,3.13,2.93,2.62C644.16,247.06,640.57,255.33,641.09,260.32z"/>
	<path class="st9" d="M1164.6,683.9c-0.51-5.12-2.46-7.47-6.22-2.26c-2.04,2.83-4.74,5.14-5.99,8.86c-1,2.97-4.27,5.56-8.46,4.38
		c9.41-11.95,18.81-23.91,28.22-35.86c2.26,1.35,2.49,3.59,2.62,5.89c-2.43,5.39-4.86,10.77-7.28,16.16c0,0-0.01,0.02-0.01,0.02
		C1166.52,682.03,1165.56,682.97,1164.6,683.9z"/>
	<path class="st8" d="M707.79,386.56c1.21-0.07,2.42-0.14,3.64-0.21c9.17,0.92,18.09,2.84,26.47,6.84c-1.17,2.1-9.17-3.84-5.45,4.61
		c0.22,0.51-4.69,2.61-7.52,2.5c-3.03-0.12-8.73,1.2-8.62-1.19C716.63,392.12,708.29,392.14,707.79,386.56z"/>
	<path class="st10" d="M1041.06,821.39c9.1-7.39,18.37-14.55,28.3-20.81c3.13,4.73,2.8,8.62-3.22,10.16
		c-3.7,0.95-5.74,4.95-9.63,4.08c-1.23,3.76,5.35,2.87,2.83,6.38c-2.23,3.12-4.88,1.12-6.65-0.57
		C1048.36,816.5,1045.08,823.88,1041.06,821.39z"/>
	<path class="st4" d="M1266.08,1255.66c-0.27-1.72-0.89-4.24,0.68-4.86c13.57-5.37,23.37-16.98,36.99-22.17
		c1.25-0.48,2.86-0.03,4.3-0.02C1295.1,1239.24,1280.59,1247.45,1266.08,1255.66z"/>
	<path class="st10" d="M497.38,125.05c-0.26-4.38-4.23-7.68-3.53-12.33c4.88-8.6,10.06-9.48,20.97-3.55
		C507.69,113.02,501.3,117.68,497.38,125.05z"/>
	<path class="st4" d="M553.62,1230.81c-1.37-7.47,0.94-13.33,6.87-18.31c3.95-3.32,5.48-8.53,7.16-13.34
		c1.24-3.56,2.6-6.56,7.22-5.57C568.89,1206.63,561.6,1218.91,553.62,1230.81z"/>
	<path class="st10" d="M1164.6,683.9c0.96-0.94,1.92-1.87,2.88-2.81c-2.25,14.57-6.48,27.95-21.15,35.02
		C1152.42,705.38,1158.51,694.64,1164.6,683.9z"/>
	<path class="st9" d="M244.71,284.56c-0.03,2.59,0.27,5.1-1.94,7.31c-4.22,4.22-7.01,9.1-9.62,14.73
		c-2.59,5.59-9.92,10.21-16.77,13.04c0.26-1.11,0.52-2.22,0.78-3.34c0.6-0.16,0.94-0.55,1.01-1.17c3.41-2.28,6.11-5.18,7.78-8.97
		c0,0-0.07-0.04-0.07-0.04c1.06-1.3,2.13-2.6,3.19-3.9C234.28,296.33,239.49,290.44,244.71,284.56z"/>
	<path class="st10" d="M1125.59,744.28c6.93-9.4,13.85-18.8,20.78-28.21c0.34,6.29,3.14,13.35-6.35,16.18
		c-1.17,0.35-3.86,3.15-4.77,6.34C1134.21,742.23,1131.33,746.73,1125.59,744.28z"/>
	<path class="st10" d="M1342.96,245.9c-12.99-2.25-25.97-4.5-38.96-6.75c10.85-5.17,22.19,1.61,33.12-1.36
		C1337.15,241.88,1342.36,242.23,1342.96,245.9z"/>
	<path class="st11" d="M796.76,1368.78c31.98,0,63.96,0,95.93,0C860.71,1371.58,828.73,1371.57,796.76,1368.78z"/>
	<path class="st10" d="M600.97,1193.32c-7.17,5.69-18.18,4.77-23.53-1.96c1.53-6.04,4.77-7.08,10.17-4.05
		C591.85,1189.69,596.5,1191.34,600.97,1193.32z"/>
	<path class="st4" d="M600.97,1193.32c-4.47-1.97-9.12-3.62-13.36-6.01c-5.4-3.03-8.64-1.99-10.17,4.05
		c-0.89,0.77-1.78,1.53-2.68,2.3c0.45-9.23,5.69-13.44,14.32-10.39c6.39,2.26,11.96,6.68,19.06,7.44c1,0.11,1.73,2.78,2.58,4.27
		C607.07,1196.77,604.43,1192.64,600.97,1193.32z"/>
	<path class="st4" d="M497.38,125.05c3.92-7.38,10.31-12.03,17.43-15.89c0,0,0.06-0.04,0.06-0.04c2.67-0.46,5.06-1.49,7.04-3.38
		c0.62,0.08,1.24,0.16,1.86,0.24c1.01,4.8-2.54,5.7-5.83,6.84c-7.95,2.76-13.63,8.02-17.58,15.44c-1.45,2.72-3.41,5.52-7.21,5.5
		c0.04-0.6,0.08-1.2,0.12-1.8c0.6-0.33,0.83-0.83,0.69-1.49c0.44-0.68,0.88-1.37,1.32-2.06
		C496.63,127.71,497.35,126.59,497.38,125.05z"/>
	<path class="st9" d="M1142.71,696.25c0.32,2.4,0.06,4.42-1.92,6.32c-6.3,6.04-12.5,12.2-18.52,18.52
		c-2.15,2.25-4.62,2.09-7.21,2.18C1124.27,714.26,1133.49,705.25,1142.71,696.25z"/>
	<path class="st10" d="M217.16,316.3c-0.26,1.11-0.52,2.22-0.78,3.34c-5.74,5.9-11.48,11.8-17.21,17.69c-0.83-2-1.66-4-2.49-6
		c7.35-1.42,6.3-11.17,13.04-13.15C212.17,317.45,214.67,316.92,217.16,316.3z"/>
	<path class="st11" d="M1381.72,976.17c1.04-9.43,2.94-10.41,11.33-7.82c5.86,1.81,11.89,2.63,12.84,10.26
		c-2.82-1.43-6.02-2.4-8.37-4.38C1391.34,969.05,1386.23,969.36,1381.72,976.17z"/>
	<path class="st11" d="M370.68,603.48c-3.02,3.8-2.88,1.26-2.89-1.39c-0.06-18.49-0.16-36.97-0.25-55.45
		C368.59,565.59,369.64,584.54,370.68,603.48z"/>
	<path class="st4" d="M557.27,94.99c-1.2,5.9-8.94,6.3-10.69,6.36c-7.86,0.26-14.36,6.31-22.32,4.54
		C534.63,100.35,545.55,96.47,557.27,94.99z"/>
	<path class="st8" d="M620.15,382.87c11.7,0,23.39,0,35.09,0c-0.25,1.49-0.82,3.19-2.38,3.21c-10.11,0.14-20.21,0.14-30.32,0
		C620.97,386.06,620.4,384.36,620.15,382.87z"/>
	<path class="st9" d="M599.22,744.08c-1.97-0.18-4.63,0.38-5.79-0.68c-5.04-4.61-9.91-9.3-16.14-12.4
		c-3.04-1.51-2.86-4.71-2.79-7.63C582.74,730.27,590.98,737.18,599.22,744.08z"/>
	<path class="st10" d="M1167.49,681.07c2.43-5.39,4.86-10.77,7.28-16.16c2.21-3.99,4.43-7.99,6.65-11.98
		C1180.77,664.29,1177.56,674.38,1167.49,681.07z"/>
	<path class="st11" d="M900.45,1025.37c-0.4,4.28-3.79,2.82-6.03,2.86c-10.45,0.22-20.91,0.2-31.36,0.26
		C875.53,1027.45,887.99,1026.41,900.45,1025.37z"/>
	<path class="st11" d="M1115.76,91.69c-9.03,0.02-18.06,0.3-27.08-0.03c-4.42-0.16-5.66,1.81-5.71,5.57
		c-4.4-4.04-4.35-6.55,2.3-6.93C1095.49,89.7,1105.7,89.06,1115.76,91.69z"/>
	<path class="st11" d="M824.62,1028.44c-9.87-0.04-19.74,0.02-29.6-0.2c-2.21-0.05-5.64,1.5-5.97-2.86
		C800.91,1026.4,812.76,1027.42,824.62,1028.44z"/>
	<path class="st10" d="M225.95,306.16c-1.67,3.79-4.37,6.69-7.78,8.97c-3.23-1.21-5.73-3.21-4.62-6.96c1.12-3.8,4.71-2.21,7.32-2.43
		C222.54,305.59,224.25,306,225.95,306.16z"/>
	<path class="st8" d="M687.65,979.4c5.88,0,9.23-0.03,12.57,0.01c2.27,0.02,3.92,0.87,3.9,3.47c-0.03,3.27-2.37,3.51-4.77,3.4
		C695.36,986.09,692.86,983.21,687.65,979.4z"/>
	<path class="st11" d="M1669.43,642.52c-1.39-9.91,0.36-19.76,0.65-29.64c0.02-0.56,1.71-1.07,2.62-1.6
		C1670.08,621.53,1673.03,632.37,1669.43,642.52z"/>
	<path class="st2" d="M517.17,659.1c-1.78,1.23-2.54,3.07-3.1,5.05c-4.02-5.98-6.86-12.47-8.35-19.53c0.24-0.21,0.47-0.42,0.71-0.63
		C510.6,648.6,514.14,653.66,517.17,659.1z"/>
	<path class="st2" d="M1181.42,652.94c-2.22,4-4.43,7.99-6.65,11.98c-0.13-2.3-0.36-4.54-2.62-5.89c3.2-5.31,6.17-10.79,10.85-15.03
		l0.63,0.56C1182.89,647.35,1182.16,650.14,1181.42,652.94z"/>
	<path class="st8" d="M256.5,247.44c6.15-1.92,12.32-1.67,18.98-0.74C270.58,250.13,264.8,250.47,256.5,247.44z"/>
	<path class="st8" d="M534.48,872.84c1.93,2.98,4.18,6.1,6,9.46c0.59,1.09-1.16,2.43-2,1.91c-3.04-1.88-6.78-3.37-7.52-7.45
		C530.65,874.99,531.8,873.51,534.48,872.84z"/>
	<path class="st8" d="M517.42,858.89c3.38,1.42,6.4,3.57,7.53,7.32c0.46,1.54-1.19,2.55-2.76,2.42c-4.55-0.39-4.76-4.95-6.89-7.63
		C514.69,860.24,515.9,859,517.42,858.89z"/>
	<path class="st11" d="M1371.13,989.51c-1.88-8.87,4.03-11.51,10.79-13.47C1379.18,981.21,1375.22,985.41,1371.13,989.51z"/>
	<path class="st10" d="M1300.32,246.05c-1.59,0-3.18,0-4.78,0c-0.38-0.41-0.95-0.77-1.1-1.25c-0.93-3.04-1.84-6.97,0.58-8.77
		c2.44-1.81,5.11,1.52,7.55,2.92C1296.84,239.72,1299.82,243.28,1300.32,246.05z"/>
	<path class="st10" d="M1674.15,488.47c-5.2-1.29-9.88-3.57-13.83-7.24c4.81-0.72,9.14,0.48,13.32,2.93
		C1676.05,485.57,1674.81,486.94,1674.15,488.47z"/>
	<path class="st11" d="M608.52,91.67c-11.08-0.04-22.16-0.07-33.23-0.11C586.38,89.16,597.45,88.72,608.52,91.67z"/>
	<path class="st8" d="M360.02,219.82c4.46-2.13,8.9-2.39,14.72-0.66C369.04,222.74,364.49,221.2,360.02,219.82z"/>
	<path class="st11" d="M820.62,530.4c0.94-1.9,1.89-3.8,2.83-5.7c0.91,7.51-0.18,14.35-6.48,19.46
		C818.19,539.57,819.4,534.99,820.62,530.4z"/>
	<path class="st11" d="M1659.31,656.71c4-1,5.11-6.08,9.41-6.63C1669.65,658.07,1664.62,657.6,1659.31,656.71z"/>
	<path class="st4" d="M574.6,91.73c-4.51,6.78-11.23,2.3-16.87,3.32C563.03,92.33,568.73,91.6,574.6,91.73z"/>
	<path class="st8" d="M1035.39,248.08c3.45-3.05,7.29-1.54,12.32-2.33C1043.27,250.57,1039.31,249.46,1035.39,248.08z"/>
	<path class="st8" d="M579.77,382.91c4.1-0.01,8.21-0.02,12.31-0.04C587.58,387.74,584.37,387.75,579.77,382.91z"/>
	<path class="st11" d="M35.6,656.5c7.75,0.1,15.51,0.19,23.26,0.29C51.1,656.69,43.35,656.59,35.6,656.5z"/>
	<path class="st8" d="M609.62,954.78c0.85-5.3,5.78-4.47,9.46-7.91C618.05,954.28,614.13,954.97,609.62,954.78L609.62,954.78z"/>
	<path class="st10" d="M1509.19,1038.8c2.06-2.52,4.13-5.04,6.19-7.57C1518.64,1039.48,1518.39,1039.79,1509.19,1038.8z"/>
	<path class="st10" d="M1676.46,498.65c-0.39-3.5,0.45-7.26-2.24-10.26c2.34-0.22,5.07-0.58,5.32,2.65
		C1679.75,493.88,1681.33,497.7,1676.46,498.65z"/>
	<path class="st8" d="M676.26,382.9c3.53,1.13,8.73-2.85,10.56,3.46C683.3,385.22,678.11,389.16,676.26,382.9z"/>
	<path class="st8" d="M591.92,916.8c-0.23,2.17-1.68,2.85-3.55,2.71c-1.48-0.11-3.04-0.78-1.9-2.58c0.85-1.34,2.28-2.87,3.68-3.15
		C591.93,913.44,591.93,915.4,591.92,916.8z"/>
	<path class="st8" d="M792.09,403.93c-0.01,0.86-0.02,1.72-0.04,2.58c-0.06,2.16-0.48,4.11-3.18,4.18c-0.8,0.02-2.08-0.17-2.34-0.67
		c-1.33-2.56,1.51-3.28,2.52-4.76c0.53-0.78,1.98-0.93,3.01-1.37C792.06,403.9,792.09,403.93,792.09,403.93z"/>
	<path class="st9" d="M608.68,751.02c-5.4,0.76-8.12-2.11-9.4-6.93C603.09,745.48,606.21,747.81,608.68,751.02z"/>
	<path class="st8" d="M564.01,386.36c1.22-5.59,5.68-2.77,8.82-3.41C571.56,388.41,567.12,385.66,564.01,386.36z"/>
	<path class="st8" d="M453.92,141.19c1.57,2.91,2.06,5.18-0.76,8.05C451.52,146.1,450.88,143.82,453.92,141.19z"/>
	<path class="st8" d="M606.12,382.87c2.34,0,4.68,0,7.02,0c-0.2,2.42-1.51,3.53-3.94,3.37C607.06,386.1,606.34,384.72,606.12,382.87
		z"/>
	<path class="st8" d="M455.24,165.33c-0.46,2.04,1.06,4.7-2.32,6.33C451.56,168.54,450.94,166.16,455.24,165.33L455.24,165.33z"/>
	<path class="st8" d="M866.88,407.6c-0.07,3.49-0.63,5.42-3.5,6.17C862.4,410.81,863.58,409.15,866.88,407.6z"/>
	<path class="st8" d="M956.98,410.93c2.04,0.45,4.71-1.07,6.33,2.32C960.2,414.61,957.81,415.25,956.98,410.93L956.98,410.93z"/>
	<path class="st8" d="M1287.11,249.42c-1.17,0.01-2.47-0.07-2.75-1.37c-0.36-1.66,1.15-1.7,2.22-1.84c1.15-0.15,2.46,0.05,2.74,1.34
		C1289.68,249.21,1288.16,249.14,1287.11,249.42z"/>
	<path class="st8" d="M455.24,165.32c0-1.17,0-2.33,0-3.5l0.01-0.01c2.75,0.34,6.43-1.16,7.01,3.51c0,0-0.01,0.01-0.01,0.01
		C459.92,165.33,457.58,165.33,455.24,165.32C455.24,165.33,455.24,165.32,455.24,165.32z"/>
	<path class="st8" d="M455.23,161.82c-4.3-0.84-3.68-3.22-2.31-6.34c3.38,1.62,1.86,4.29,2.32,6.32
		C455.25,161.81,455.23,161.82,455.23,161.82z"/>
	<path class="st8" d="M402.81,246.02c0.56,0.36,1.92,0.76,2.16,1.52c0.51,1.58-1.08,1.87-2.11,1.79c-0.96-0.07-2.47-0.59-2.7-1.26
		C399.64,246.5,401.23,246.47,402.81,246.02z"/>
	<path class="st8" d="M478.48,823.61c0.45,1.06,0.98,1.75,0.97,2.43c-0.02,1.28-0.9,2-2.08,1.34c-0.47-0.26-0.74-1.43-0.6-2.09
		C476.89,824.73,477.72,824.32,478.48,823.61z"/>
	<path class="st10" d="M521.92,105.75c-1.98,1.89-4.37,2.92-7.04,3.38C515.54,104.5,519.1,105.91,521.92,105.75z"/>
	<path class="st8" d="M709.28,405.48c-0.82,0.7-1.32,1.46-1.9,1.53c-0.67,0.07-1.85-0.3-2.04-0.78c-0.49-1.28,0.46-2.03,1.65-1.99
		C707.64,404.25,708.26,404.9,709.28,405.48z"/>
	<path class="st10" d="M1515.72,1030.68c0.92-1.25,1.84-2.49,2.76-3.74c0.39,1.56,2.98,2.69,1.73,4.31
		C1519.04,1032.78,1517.17,1031.53,1515.72,1030.68z"/>
	<path class="st8" d="M815.52,387.86c0.91,1.28,1.82,2.55,2.73,3.83c-1.54-0.19-3.45,0.36-4.3-1.43
		C813.37,389.02,814.59,388.41,815.52,387.86z"/>
	<path class="st8" d="M1013.08,247.67c0.76-1.5,1.97-2.42,3.62-2.78C1016.26,246.83,1017.21,250.55,1013.08,247.67z"/>
	<path class="st8" d="M1086.89,247.93c-0.9,1.38-2.22,1.39-3.62,1.12C1083.82,246.57,1084.72,245.21,1086.89,247.93z"/>
	<path class="st8" d="M743.23,301.97c-0.45,1.22-0.37,2.88-2.33,2.81c-0.2-0.01-0.56-0.36-0.57-0.56c-0.08-1.96,1.59-1.88,2.8-2.33
		C743.14,301.89,743.23,301.97,743.23,301.97z"/>
	<path class="st8" d="M672.81,245.81c1.41,0.15,2.78,0.36,3.55,1.78C673.4,250.55,673.14,248.11,672.81,245.81z"/>
	<path class="st8" d="M606.15,249.04c-1.4,0.27-2.73,0.3-3.65-1.06C604.61,245.23,605.57,246.5,606.15,249.04z"/>
	<path class="st10" d="M229.07,302.22c-1.07,1.3-2.13,2.6-3.19,3.9C225.29,303.46,226.49,302.28,229.07,302.22z"/>
	<path class="st2" d="M1183,643.99c0.37-0.79,0.03-2.64,1.45-1.93c1.03,0.52,0.25,1.87-0.82,2.48
		C1183.63,644.55,1183,643.99,1183,643.99z"/>
	<path class="st2" d="M505.72,644.61c-1.06-0.66-1.84-2.04-0.79-2.57c1.47-0.75,1.12,1.14,1.5,1.94
		C506.19,644.19,505.96,644.4,505.72,644.61z"/>
	<path class="st11" d="M857.79,1028.56l-0.81-0.01c0,0-0.81,0.02-0.8,0.02C856.72,1028.57,857.26,1028.57,857.79,1028.56z"/>
	<path class="st8" d="M599.04,247.3c-1.48,0.3-2.8,0-3.89-1.1C596.61,245.98,597.99,246.07,599.04,247.3z"/>
	<path class="st8" d="M1094.28,246.2c-1.08,1.15-2.41,1.42-3.91,1.1C1091.43,246.07,1092.81,245.99,1094.28,246.2z"/>
	<path class="st10" d="M144.89,849.58c-0.65,0.42-1.31,0.84-1.96,1.26C143.58,850.42,144.23,850,144.89,849.58z"/>
	<path class="st8" d="M562.19,934.78c-0.44-0.34-0.88-0.69-1.33-1.03C561.3,934.1,561.74,934.44,562.19,934.78z"/>
	<path class="st8" d="M1267.37,245.85c-1-0.04-1.34-0.58-1.14-1.52C1266.62,244.84,1266.99,245.34,1267.37,245.85z"/>
	<path class="st8" d="M660.5,382.87c0.58,0,1.17,0,1.75,0C661.67,383.87,661.08,383.87,660.5,382.87z"/>
	<path class="st10" d="M527.89,1277.67c0.35-0.57,0.71-1.14,1.06-1.71C528.6,1276.53,528.24,1277.1,527.89,1277.67z"/>
	<path class="st4" d="M1574.55,656.59c-8.1,3.33-16.57,1.23-24.86,1.59c-8.41,0.37-16.86-0.01-25.28-0.06
		c4.42-3.38,9.49-1.36,14.21-1.48C1550.59,656.33,1562.58,656.57,1574.55,656.59z"/>
	<path class="st13" d="M1502.2,1036.4c-2.42,1.92-4.39,1.51-6.5-0.75c-1.6-1.72-1.49-2.77,0.37-3.91
		C1498.12,1033.29,1500.16,1034.84,1502.2,1036.4z"/>
	<path class="st13" d="M1477.98,1021.69c-0.3,0.7-0.59,1.4-0.89,2.1c-0.26-0.73-0.51-1.46-0.77-2.19
		C1476.89,1021.42,1477.44,1021.45,1477.98,1021.69z"/>
	<path class="st9" d="M956.69,389.82c-11.67,4.42-23.34,8.83-35.01,13.25c15.03-12.99,31.37-23.16,49.37-30.48
		c-4.54,10.23-15.8,10.02-23.98,15.46C949.96,391.14,953.59,389.26,956.69,389.82z"/>
	<path class="st9" d="M972.31,372.17c10.55-6.33,21.83-10.9,33.71-14.04c0.15,4.85-4.65,4.48-6.85,5.03
		C989.95,365.48,983.02,374.61,972.31,372.17z"/>
	<path class="st9" d="M1518.86,370.21c6.52,3.92,11.51,9.36,15.69,15.63C1527.3,384.97,1519.83,377.54,1518.86,370.21z"/>
	<path class="st10" d="M1311.09,267.18c-7.86-4.15-11.35-10.59-10.23-19.46C1304.8,253.93,1308.73,260.14,1311.09,267.18z"/>
	<path class="st10" d="M1320.98,284.33c-9.72,1.2-7.67-4.65-6.12-10.21C1318.01,276.86,1319.29,280.72,1320.98,284.33z"/>
	<path class="st9" d="M1507.9,358.29c3.74,2.7,7.33,5.53,9.21,9.94C1509.52,369.1,1507.68,364.66,1507.9,358.29z"/>
	<path class="st9" d="M1536.55,387.58c3.94,1.8,6.92,4.58,8.71,8.56C1538.52,397.2,1535.8,394.15,1536.55,387.58z"/>
	<path class="st10" d="M1314.85,274.1c-4.51-0.45-3.17-4.06-3.62-6.71C1313.54,269.03,1314.37,271.47,1314.85,274.1z"/>
	<path class="st9" d="M1517.04,368.38c1.26,0.01,1.7,0.74,1.68,1.89C1517.61,370.13,1517.04,369.51,1517.04,368.38z"/>
	<path class="st9" d="M1546.73,398.33c1.45-0.26,2.14,0.55,2.51,1.8C1548,400.09,1547.07,399.62,1546.73,398.33z"/>
	<path class="st9" d="M1545.24,396.38c1.25,0.01,1.73,0.67,1.6,1.86C1545.68,398.16,1545.12,397.56,1545.24,396.38z"/>
	<path class="st9" d="M1534.51,386.01c1.16-0.04,1.85,0.46,1.91,1.67C1535.27,387.71,1534.64,387.15,1534.51,386.01z"/>
	<path class="st13" d="M767.53,324.92c0.56,3.37-1.71,5.28-3.76,7.32c-1.45,1.44-3.06,1.65-4.65,0.49
		c-1.84-1.34-2.94-3.63-1.02-5.11c2.83-2.18,1.44-6.3,4.45-8.11C764.2,321.32,765.87,323.12,767.53,324.92z"/>
	<path class="st9" d="M564,354.79c0.88-4.83,4.74-3.2,7.65-3.47c7.88-0.73,16.07,1.81,23.6-3.18c1.93-1.28,5.79-1.3,8.15,1.03
		c0.63,0.62,0.82,2.31,0.47,3.21c-1.48,3.74-4.93,2.3-7.58,2.34c-10.76,0.16-21.52,0.08-32.28,0.08L564,354.79z"/>
	<path class="st9" d="M142.82,396.79c8.84-9.52,17.6-19.12,27.95-27.09c0.79,8.21-6.98,10.53-10.92,15.41
		c-2.73,3.38-6.57,5.58-8.33,10.13C150.05,399.06,145.76,396.1,142.82,396.79z"/>
	<path class="st9" d="M507.87,344.27c14.77,0,29.54,0,44.06,0c0.52,2.43-0.15,3.29-1.49,3.3c-12.8,0.09-25.6,0.11-38.41,0.18
		C509.62,347.75,508.19,346.71,507.87,344.27C507.87,344.27,507.87,344.27,507.87,344.27z"/>
	<path class="st9" d="M621.19,358.86c7.48-1.21,15.5,0.47,22.47-3.73c1.74-1.05,4.1,0.08,4.32,2.75c0.2,2.44-1.12,3.82-3.59,3.83
		c-7.67,0.04-15.35,0.01-23.02,0.01C621.3,360.78,621.24,359.82,621.19,358.86z"/>
	<ellipse class="st9" cx="663.15" cy="370.58" rx="19.3" ry="1.23"/>
	<path class="st9" d="M592.57,369.34c8.44,0,17.36,0,27,0C612.93,373.98,596.42,373.35,592.57,369.34z"/>
	<path class="st9" d="M479.81,340.75c7.15,0.01,14.3-0.02,21.44,0.04c2.75,0.02,6.02-0.73,6.62,3.47c0,0,0,0,0,0
		c-7.15,0-14.3,0.03-21.45-0.03c-2.76-0.02-6.02,0.72-6.63-3.47C479.8,340.77,479.81,340.75,479.81,340.75z"/>
	<path class="st9" d="M562.82,363.06c-7.97,2.79-15.92,2.2-23.84,0C546.92,363.06,554.87,363.06,562.82,363.06z"/>
	<path class="st9" d="M496.08,352.76c-5.06,2.66-10.08,2.1-15.09,0.51C485.97,350.47,491.03,351.52,496.08,352.76z"/>
	<path class="st9" d="M592.63,368.97c-4.22-0.6-8.07,0.73-11.53-2.01C584.96,365.45,588.88,363.31,592.63,368.97z"/>
	<path class="st9" d="M451.61,352.68c-3.01,2.83-5.28,2.36-8.14,0.75C445.81,350.61,448.18,350.95,451.61,352.68z"/>
	<path class="st9" d="M626.14,353.83c-0.81,0.23-1.78,0.73-2.76,0.73c-1.05,0-2.62-0.25-2.09-1.79c0.23-0.67,1.72-1.18,2.68-1.26
		C625.01,351.42,626.33,351.65,626.14,353.83z"/>
	<path class="st9" d="M564.02,354.8c-0.28,1.74-0.69,3.46-2.99,3.09c-0.54-0.09-1.44-1.24-1.31-1.56c0.79-2.04,2.75-1.29,4.3-1.53
		C564,354.79,564.02,354.8,564.02,354.8z"/>
	<path class="st9" d="M685.73,369.84c-0.47,0.14-0.72,0.21-0.96,0.28c-0.06-0.21-0.12-0.43-0.18-0.64
		C684.9,369.59,685.22,369.69,685.73,369.84z"/>
	<path class="st11" d="M823.37,524.85c1.96-9.68,4.02-19.34,5.84-29.05c0.77-4.1,3.22-4.83,6.88-4.77c4.39,0.07,3.47,3.15,3.48,5.54
		c0.04,56.39-0.08,112.77,0.15,169.16c0.03,6.86-5.74,6.23-8.93,8.96c9.16-10.05,6.81-22.42,6.83-34.28
		c0.06-44.88,0.04-89.76,0.05-134.64c0-1.75,0.04-3.5-0.02-5.25c-0.08-2.3,0.23-4.96-3.16-5.16c-3.31-0.2-4.17,2.32-3.68,4.63
		c1.68,7.88-4.29,14.26-3.92,21.84C826.99,523.99,825.3,524.73,823.37,524.85z"/>
	<path class="st11" d="M851.96,670.76c-3.42-0.95-2.07-3.81-2.07-5.83c-0.08-55.82-0.09-111.64,0-167.47c0-2.23-1.59-5.87,2.57-6.25
		c2.9-0.26,6.9-1.34,6.96,3.92c-5.34-0.75-7.83,0.8-7.8,6.96C851.9,558.32,851.89,614.54,851.96,670.76z"/>
	<path class="st11" d="M1209.42,300.58c-18.47,0.03-36.94,0.06-55.41,0.1c0.97-2.67,3.32-1.84,5.15-1.86
		c15.01-0.1,30.02-0.13,45.03-0.11C1206.08,298.71,1208.35,298.09,1209.42,300.58z"/>
	<path class="st11" d="M535.35,300.68c-19.39,0.03-38.78,0.06-58.16,0.09c0.31-1.92,1.81-2.04,3.25-2.04
		c17.16,0.01,34.32,0.04,51.47,0.08C533.36,298.81,534.86,298.87,535.35,300.68z"/>
	<path class="st4" d="M669.41,330.11c-6.96-1.15-13.32-4.04-19.71-6.83c7.56-2.47,13.6,3.62,20.79,3.82
		C672.28,327.15,669.44,328.91,669.41,330.11z"/>
	<path class="st11" d="M577.69,305.62c-8.46-0.64-16.92-1.3-25.17-3.41c6.41,0.06,12.81,0.03,19.21,0.23
		C574.12,302.5,577.34,301.52,577.69,305.62z"/>
	<path class="st10" d="M493.27,131.98c-0.04,0.6-0.08,1.2-0.12,1.8c-1.5,1.72-3,3.45-4.5,5.17
		C488.37,135.42,489.09,132.55,493.27,131.98z"/>
	<path class="st10" d="M476.09,159.11c0.54-0.84,1.09-1.68,1.63-2.51C477.89,157.89,477.29,158.69,476.09,159.11z"/>
	<path class="st10" d="M471.11,167.13c-0.03-1.56,0.35-2.88,2.03-3.42C473.04,165.19,472.47,166.39,471.11,167.13z"/>
	<path class="st10" d="M486.75,142c0.16-0.37,0.39-0.7,0.66-0.99C487.57,141.58,487.35,141.91,486.75,142z"/>
	<path class="st13" d="M483.26,147.49c0.29-0.5,0.65-0.93,1.08-1.31C483.98,146.61,483.62,147.05,483.26,147.49z"/>
	<path class="st10" d="M479.82,153.09c0.39-0.57,0.78-1.15,1.17-1.72C480.6,151.95,480.21,152.52,479.82,153.09z"/>
	<path class="st10" d="M472.99,163.92c0.45-0.7,0.91-1.4,1.36-2.1C473.9,162.52,473.45,163.22,472.99,163.92z"/>
	<path class="st6" d="M881.99,404.26c-0.45,0.47-0.9,0.94-1.35,1.41c-0.18-0.18-0.53-0.49-0.51-0.51c0.39-0.49,0.82-0.95,1.24-1.42
		C881.37,403.73,881.99,404.26,881.99,404.26z"/>
	<path class="st13" d="M781.55,407.43c-1.26-0.23-2.76-0.19-2.64-2.11c0.01-0.2,0.35-0.53,0.54-0.54
		C781.37,404.67,781.32,406.16,781.55,407.43L781.55,407.43z"/>
	<path class="st6" d="M808.03,403.75c0.43,0.47,0.87,0.93,1.26,1.43c0.02,0.02-0.34,0.34-0.52,0.52c-0.45-0.48-0.9-0.96-1.36-1.44
		C807.41,404.26,808.03,403.75,808.03,403.75z"/>
	<path class="st9" d="M771.01,403.93c0.41,0.24,0.83,0.49,1.24,0.73c-1.05,0.76-1.22,0.15-1.2-0.77
		C771.05,403.89,771.01,403.93,771.01,403.93z"/>
	<path class="st10" d="M495.28,128.43c-0.44,0.69-0.88,1.37-1.32,2.06C494.4,129.8,494.84,129.12,495.28,128.43z"/>
	<path class="st13" d="M992.25,290.01c-1.57-0.37-3.63,0.42-4.49-1.61c-0.42-0.99,0.44-1.58,1.37-1.66
		c2.41-0.22,2.69,1.62,3.07,3.32C992.2,290.06,992.25,290.01,992.25,290.01z"/>
	<path class="st13" d="M726.3,311.5c0.52-0.16,0.41-1.71,1.47-0.67c-0.36,0.33-0.72,0.67-1.1,1
		C726.67,311.84,726.3,311.5,726.3,311.5z"/>
	<path class="st13" d="M418.39,412.69c-0.24-0.14-0.48-0.27-0.72-0.41c0.25,0.13,0.49,0.26,0.74,0.39
		C418.41,412.68,418.39,412.69,418.39,412.69z"/>
	<path class="st13" d="M504.38,1298.63c-0.19,1.11-0.17,2.42-1.65,2.63c-0.3,0.04-1.02-0.67-0.98-0.96c0.19-1.5,1.53-1.43,2.62-1.68
		C504.36,1298.62,504.38,1298.63,504.38,1298.63z"/>
	<path class="st8" d="M960.48,302.17c-1.44-0.18-2.8-0.54-3.46-2c-0.64-1.42-2.37-3.22-0.21-4.32c2.55-1.29,3.43,0.69,3.61,2.92
		c0.09,1.12,0.06,2.25,0.09,3.37C960.5,302.15,960.48,302.17,960.48,302.17z"/>
	<path class="st8" d="M947.14,304.39c0.21-0.48,0.32-1.23,0.67-1.37c0.34-0.14,0.93,0.35,1.41,0.56c-0.21,0.48-0.32,1.23-0.67,1.37
		C948.21,305.09,947.62,304.6,947.14,304.39z"/>
	<path class="st13" d="M124.99,858.35c-0.17,0.2-0.33,0.4-0.5,0.6c-0.13-0.23-0.37-0.47-0.35-0.69c0.02-0.21,0.3-0.41,0.46-0.61
		C124.73,857.88,124.86,858.11,124.99,858.35z"/>
</g>
</svg>
